<svg width="250" height="48" viewBox="0 0 250 48" fill="none" xmlns="http://www.w3.org/2000/svg">
<path d="M1.5 47V1H12.5V47H1.5Z" fill="#F7D100"/>
<path d="M18.5 28V18.5H35V1H47V47H35V28H18.5Z" fill="#F7D100"/>
<path d="M72.5 31L49 1H63.5L78.5 20L92.5 1H106L83.5 31V47H72.5V31Z" fill="#F7D100"/>
<path d="M108 13V1H151.5V13H135.5V47H123.5V13H108Z" fill="#F7D100"/>
<path d="M155 47V1H197V13H166.5V35H197V47H155Z" fill="#F7D100"/>
<path d="M171.5 28V19H195V28H171.5Z" fill="#F7D100"/>
<path d="M222 1H249V13H222C216.5 13 212 17.5 212 24C212 31 217.5 35 222 35H249V46H222.5C213 46 201.4 38.7 201 23.5C200.6 8.3 212 1 222 1Z" fill="#F7D100"/>
<path d="M1.5 47V1H12.5V47H1.5Z" stroke="#F7D100" stroke-width="2"/>
<path d="M18.5 28V18.5H35V1H47V47H35V28H18.5Z" stroke="#F7D100" stroke-width="2"/>
<path d="M72.5 31L49 1H63.5L78.5 20L92.5 1H106L83.5 31V47H72.5V31Z" stroke="#F7D100" stroke-width="2"/>
<path d="M108 13V1H151.5V13H135.5V47H123.5V13H108Z" stroke="#F7D100" stroke-width="2"/>
<path d="M155 47V1H197V13H166.5V35H197V47H155Z" stroke="#F7D100" stroke-width="2"/>
<path d="M171.5 28V19H195V28H171.5Z" stroke="#F7D100" stroke-width="2"/>
<path d="M222 1H249V13H222C216.5 13 212 17.5 212 24C212 31 217.5 35 222 35H249V46H222.5C213 46 201.4 38.7 201 23.5C200.6 8.3 212 1 222 1Z" stroke="#F7D100" stroke-width="2"/>
</svg>
