<svg width="163" height="32" viewBox="0 0 163 32" fill="none" xmlns="http://www.w3.org/2000/svg">
<path d="M1.5 30.7374V1H8.61111V30.7374H1.5Z" stroke="#F7D100" stroke-width="1.5"/>
<path d="M12.4899 18.4545V12.3131H23.1566V1H30.9141V30.7374H23.1566V18.4545H12.4899Z" stroke="#F7D100" stroke-width="1.5"/>
<path d="M47.399 20.3939L32.2071 1H41.5808L51.2778 13.2828L60.3283 1H69.0556L54.5101 20.3939V30.7374H47.399V20.3939Z" stroke="#F7D100" stroke-width="1.5"/>
<path d="M70.3485 8.75758V1H98.4697V8.75758H88.1263V30.7374H80.3687V8.75758H70.3485Z" stroke="#F7D100" stroke-width="1.5"/>
<path d="M100.732 30.7374V1H127.884V8.75758H108.167V22.9798H127.884V30.7374H100.732Z" stroke="#F7D100" stroke-width="1.5"/>
<path d="M111.399 18.4545V12.6364H126.591V18.4545H111.399Z" stroke="#F7D100" stroke-width="1.5"/>
<path d="M144.045 1H161.5V8.75758H144.045C140.49 8.75758 137.581 11.6667 137.581 15.8687C137.581 20.3939 141.136 22.9798 144.045 22.9798H161.5V30.0909H144.369C138.227 30.0909 130.728 25.3717 130.47 15.5455C130.211 5.71919 137.581 1 144.045 1Z" stroke="#F7D100" stroke-width="1.5"/>
</svg>
