<svg width="71" height="50" viewBox="0 0 71 50" fill="none" xmlns="http://www.w3.org/2000/svg">
<path d="M7.4516 8.48849L1 1.12276L29.3627 12.2941L31.5538 18.9233H39.2227L41.2921 12.2941L69.6548 1L63.0814 8.48849L44.5787 14.3811L40.44 24.6931L45.4308 15.7315L59.5513 12.2941L54.8039 17.5729L44.5787 18.9233L52.3693 20.1509L48.2306 24.8159L42.6311 22.3606L46.6481 26.5345L43.9701 29.6036L40.6834 26.1662L43.4832 32.5499L41.9007 35.7417L38.614 31.0767L40.6834 37.9514L35.936 49V30.2174L38.3706 21.624H32.2842L34.597 30.2174V49L29.8496 37.9514L31.919 31.0767L28.7541 35.7417L27.1716 32.5499L29.8496 26.1662L26.5629 29.6036L24.0067 26.5345L27.902 22.3606L22.3025 24.8159L18.4071 20.1509L26.076 18.9233L15.8509 17.5729L11.1035 12.2941L25.2239 15.7315L30.2148 24.8159L26.076 14.3811L7.4516 8.48849Z" stroke="#F7D100"/>
</svg>
