<svg width="233" height="45" viewBox="0 0 233 45" fill="none" xmlns="http://www.w3.org/2000/svg">
<path d="M0.23214 44.1176V0.823517H9.6369V44.1176H0.23214Z" fill="#F7D100"/>
<path d="M15.2798 26.2353V17.2941H31.7381V0.823517H41.1429V44.1176H31.7381V26.2353H15.2798Z" fill="#F7D100"/>
<path d="M67.006 29.0588L45.8452 0.823517H57.6012L72.6488 19.647L86.756 0.823517H98.5119L77.3512 29.0588V44.1176H67.006V29.0588Z" fill="#F7D100"/>
<path d="M102.274 10.2353V0.823517H141.304V10.2353H127.196V44.1176H116.851V10.2353H102.274Z" fill="#F7D100"/>
<path d="M145.536 44.1176V0.823517H185.036V10.2353H155.411V34.7059H185.036V44.1176H145.536Z" fill="#F7D100"/>
<path d="M161.054 26.2353V18.7059H183.155V26.2353H161.054Z" fill="#F7D100"/>
<path d="M207.607 0.823517H233V10.2353H206.667C201.494 10.2353 197.262 16.3529 197.262 22.4706C197.262 29.0588 202.435 33.7647 206.667 33.7647H233V43.1765H208.077C199.143 43.1765 188.233 36.3059 187.857 22C187.481 7.6941 198.202 0.823517 207.607 0.823517Z" fill="#F7D100"/>
</svg>
