<svg width="249" height="48" viewBox="0 0 249 48" fill="none" xmlns="http://www.w3.org/2000/svg">
<path d="M0.5 47V1H11.5V47H0.5Z" stroke="#F7D100"/>
<path d="M17.5 28V18.5H34V1H46V47H34V28H17.5Z" stroke="#F7D100"/>
<path d="M71.5 31L48 1H62.5L77.5 20L91.5 1H105L82.5 31V47H71.5V31Z" stroke="#F7D100"/>
<path d="M107 13V1H150.5V13H134.5V47H122.5V13H107Z" stroke="#F7D100"/>
<path d="M154 47V1H196V13H165.5V35H196V47H154Z" stroke="#F7D100"/>
<path d="M170.5 28V19H194V28H170.5Z" stroke="#F7D100"/>
<path d="M221 1H248V13H221C215.5 13 211 17.5 211 24C211 31 216.5 35 221 35H248V46H221.5C212 46 200.4 38.7 200 23.5C199.6 8.3 211 1 221 1Z" stroke="#F7D100"/>
</svg>
