<svg width="317" height="50" viewBox="0 0 317 50" fill="none" xmlns="http://www.w3.org/2000/svg">
<path d="M84.2321 47.1176V3.82352H93.6369V47.1176H84.2321Z" fill="#F7D100"/>
<path d="M99.2798 29.2353V20.2941H115.738V3.82352H125.143V47.1176H115.738V29.2353H99.2798Z" fill="#F7D100"/>
<path d="M151.006 32.0588L129.845 3.82352H141.601L156.649 22.647L170.756 3.82352H182.512L161.351 32.0588V47.1176H151.006V32.0588Z" fill="#F7D100"/>
<path d="M186.274 13.2353V3.82352H225.304V13.2353H211.196V47.1176H200.851V13.2353H186.274Z" fill="#F7D100"/>
<path d="M229.536 47.1176V3.82352H269.036V13.2353H239.411V37.7059H269.036V47.1176H229.536Z" fill="#F7D100"/>
<path d="M245.054 29.2353V21.7059H267.155V29.2353H245.054Z" fill="#F7D100"/>
<path d="M291.607 3.82352H317V13.2353H290.667C285.494 13.2353 281.262 19.3529 281.262 25.4706C281.262 32.0588 286.435 36.7647 290.667 36.7647H317V46.1765H292.077C283.143 46.1765 272.233 39.3059 271.857 25C271.481 10.6941 282.202 3.82352 291.607 3.82352Z" fill="#F7D100"/>
<path d="M7.4516 8.48849L1 1.12276L29.3627 12.2941L31.5538 18.9233H39.2227L41.2921 12.2941L69.6548 1L63.0814 8.48849L44.5787 14.3811L40.44 24.6931L45.4308 15.7315L59.5513 12.2941L54.8039 17.5729L44.5787 18.9233L52.3693 20.1509L48.2306 24.8159L42.6311 22.3606L46.6481 26.5345L43.9701 29.6036L40.6834 26.1662L43.4832 32.5499L41.9007 35.7417L38.614 31.0767L40.6834 37.9514L35.936 49V30.2174L38.3706 21.624H32.2842L34.597 30.2174V49L29.8496 37.9514L31.919 31.0767L28.7541 35.7417L27.1716 32.5499L29.8496 26.1662L26.5629 29.6036L24.0067 26.5345L27.902 22.3606L22.3025 24.8159L18.4071 20.1509L26.076 18.9233L15.8509 17.5729L11.1035 12.2941L25.2239 15.7315L30.2148 24.8159L26.076 14.3811L7.4516 8.48849Z" stroke="#F7D100"/>
</svg>
